<?xml version="1.0" encoding="utf-8"?>
<!-- Generator: Adobe Illustrator 24.1.0, SVG Export Plug-In . SVG Version: 6.00 Build 0)  -->
<svg version="1.1" id="Layer_1" xmlns="http://www.w3.org/2000/svg" xmlns:xlink="http://www.w3.org/1999/xlink" x="0px" y="0px"
	 viewBox="0 0 1080 1080" style="enable-background:new 0 0 1080 1080;" xml:space="preserve">
<style type="text/css">
	.st0{fill:#0096CA;}
	.st1{opacity:0.9;fill:#FFFFFF;}
	.st2{opacity:0.8;fill:#FFFFFF;}
	.st3{opacity:0.7;fill:#FFFFFF;}
	.st4{opacity:0.6;fill:#FFFFFF;}
	.st5{fill:#FFFFFF;}
</style>
<circle class="st0" cx="540" cy="540" r="540"/>
<g>
	<path class="st1" d="M337.21,361.24c-98.55,0.01-178.73,80.2-178.73,178.75h78.29c0-55.33,44.98-100.37,100.52-100.46
		c-0.06,0-0.11,0-0.17,0L337.21,361.24z"/>
	<polygon class="st1" points="337.23,361.24 337.22,361.24 337.23,361.24 	"/>
	<path class="st2" d="M337.23,718.75v-78.29c-55.4,0-100.47-45.07-100.47-100.48h-78.29C158.47,638.56,238.66,718.75,337.23,718.75z
		"/>
	<path class="st3" d="M460.34,516.83c-17.81-15.95-35.09-31.44-49.8-45.45l-2.75-2.64c-2.48-2.44-5.05-4.73-7.71-6.88l8.25,8.57
		c18.87,18.6,29.28,43.39,29.36,69.86c-0.16,55.27-45.16,100.18-100.46,100.18v78.29c89.11,0,163.18-65.56,176.57-150.97
		l-31.93-31.6L460.34,516.83z"/>
	<path class="st4" d="M464.66,414.83c14.05,13.37,30.73,28.3,47.92,43.71l3.41,3.07V223.33H437.7V392.3
		c8.74,5.98,17.01,12.78,24.7,20.36L464.66,414.83z"/>
	<path class="st1" d="M843.24,540.01c0,55.33-44.98,100.37-100.52,100.46c0.06,0,0.11,0,0.17,0l-0.1,78.29
		c98.55-0.01,178.73-80.2,178.73-178.75H843.24z"/>
	<polygon class="st1" points="742.77,718.76 742.78,718.76 742.77,718.76 	"/>
	<path class="st2" d="M742.77,361.25v78.29c55.4,0,100.47,45.07,100.47,100.48h78.29C921.53,441.44,841.34,361.25,742.77,361.25z"/>
	<path class="st3" d="M628.17,569.46c9.41,9.01,18.64,17.85,26.29,25.15c5.21,4.8,10.25,9.49,15,14.01l2.75,2.64
		c2.48,2.44,5.05,4.73,7.71,6.88l-8.25-8.57c-18.87-18.6-29.28-43.39-29.36-69.86c0.16-55.27,45.16-100.18,100.46-100.18v-78.29
		c-88.3,0-161.83,64.38-176.18,148.67l21.39,21.18C597.65,540.24,613.13,555.05,628.17,569.46z"/>
	<path class="st4" d="M615.34,665.17l-7.16-6.44l0.01-0.09c-8.67-8.24-21.25-20.27-34.16-32.65c-3.34-3.19-6.69-6.41-10.01-9.58
		v240.26h78.29V687.7c-8.74-5.98-17.01-12.78-24.7-20.36L615.34,665.17z"/>
	<path class="st5" d="M742.72,640.47c-23.02-0.07-44.88-7.85-62.8-22.32c-2.66-2.15-5.24-4.44-7.71-6.88l-2.75-2.64
		c-4.75-4.52-9.79-9.21-15-14.01c-7.65-7.3-16.88-16.14-26.29-25.15c-15.04-14.41-30.52-29.22-40.19-38.37l-21.39-21.18
		l-30.32-30.02l-20.29-18.28l-3.41-3.07c-17.19-15.41-33.87-30.34-47.92-43.71l-2.26-2.17c-7.69-7.58-15.96-14.38-24.7-20.36
		c-29.39-20.13-64.13-31-100.47-31.05c0,0-0.01,0-0.01,0c0,0-0.01,0-0.01,0v0l-0.1,78.29c0.06,0,0.11,0,0.17,0
		c23.02,0.07,44.88,7.85,62.8,22.32c2.66,2.15,5.24,4.44,7.71,6.88l2.75,2.64c14.71,14.01,31.99,29.5,49.8,45.45l21.53,19.35
		l31.93,31.6l19.72,19.52c7.93,7.51,18.97,18.08,30.5,29.11c3.32,3.18,6.68,6.39,10.01,9.58c12.91,12.37,25.5,24.4,34.16,32.65
		l-0.01,0.09l7.16,6.44l2.26,2.17c7.69,7.58,15.96,14.38,24.7,20.36c29.39,20.13,64.13,31,100.47,31.05c0,0,0.01,0,0.01,0
		c0,0,0.01,0,0.01,0v0l0.1-78.29C742.84,640.47,742.78,640.47,742.72,640.47z"/>
</g>
</svg>
